<svg id="visual" viewBox="0 0 900 600" width="900" height="600" xmlns="http://www.w3.org/2000/svg" xmlns:xlink="http://www.w3.org/1999/xlink" version="1.1"><rect width="900" height="600" fill="#110000"></rect><g><g transform="translate(610 286)"><path d="M0 -54.2L47 -27.1L47 27.1L0 54.2L-47 27.1L-47 -27.1Z" fill="none" stroke="#ff0000" stroke-width="2"></path></g><g transform="translate(143 253)"><path d="M0 -36L31.2 -18L31.2 18L0 36L-31.2 18L-31.2 -18Z" fill="none" stroke="#ff0000" stroke-width="2"></path></g><g transform="translate(694 450)"><path d="M0 -50L43.3 -25L43.3 25L0 50L-43.3 25L-43.3 -25Z" fill="none" stroke="#ff0000" stroke-width="2"></path></g><g transform="translate(890 533)"><path d="M0 -44L38.1 -22L38.1 22L0 44L-38.1 22L-38.1 -22Z" fill="none" stroke="#ff0000" stroke-width="2"></path></g><g transform="translate(715 336)"><path d="M0 -44L38.1 -22L38.1 22L0 44L-38.1 22L-38.1 -22Z" fill="none" stroke="#ff0000" stroke-width="2"></path></g><g transform="translate(161 117)"><path d="M0 -43L37.2 -21.5L37.2 21.5L0 43L-37.2 21.5L-37.2 -21.5Z" fill="none" stroke="#ff0000" stroke-width="2"></path></g><g transform="translate(384 121)"><path d="M0 -50L43.3 -25L43.3 25L0 50L-43.3 25L-43.3 -25Z" fill="none" stroke="#ff0000" stroke-width="2"></path></g><g transform="translate(129 449)"><path d="M0 -49L42.4 -24.5L42.4 24.5L0 49L-42.4 24.5L-42.4 -24.5Z" fill="none" stroke="#ff0000" stroke-width="2"></path></g><g transform="translate(297 239)"><path d="M0 -48L41.6 -24L41.6 24L0 48L-41.6 24L-41.6 -24Z" fill="none" stroke="#ff0000" stroke-width="2"></path></g><g transform="translate(636 25)"><path d="M0 -42L36.4 -21L36.4 21L0 42L-36.4 21L-36.4 -21Z" fill="none" stroke="#ff0000" stroke-width="2"></path></g><g transform="translate(359 388)"><path d="M0 -45L39 -22.5L39 22.5L0 45L-39 22.5L-39 -22.5Z" fill="none" stroke="#ff0000" stroke-width="2"></path></g><g transform="translate(417 289)"><path d="M0 -35L30.3 -17.5L30.3 17.5L0 35L-30.3 17.5L-30.3 -17.5Z" fill="none" stroke="#ff0000" stroke-width="2"></path></g><g transform="translate(226 529)"><path d="M0 -39L33.8 -19.5L33.8 19.5L0 39L-33.8 19.5L-33.8 -19.5Z" fill="none" stroke="#ff0000" stroke-width="2"></path></g><g transform="translate(805 458)"><path d="M0 -51L44.2 -25.5L44.2 25.5L0 51L-44.2 25.5L-44.2 -25.5Z" fill="none" stroke="#ff0000" stroke-width="2"></path></g><g transform="translate(475 412)"><path d="M0 -51L44.2 -25.5L44.2 25.5L0 51L-44.2 25.5L-44.2 -25.5Z" fill="none" stroke="#ff0000" stroke-width="2"></path></g><g transform="translate(9 287)"><path d="M0 -50L43.3 -25L43.3 25L0 50L-43.3 25L-43.3 -25Z" fill="none" stroke="#ff0000" stroke-width="2"></path></g><g transform="translate(826 254)"><path d="M0 -46L39.8 -23L39.8 23L0 46L-39.8 23L-39.8 -23Z" stroke="#ff0000" fill="none" stroke-width="2"></path></g><g transform="translate(494 49)"><path d="M0 -53L45.9 -26.5L45.9 26.5L0 53L-45.9 26.5L-45.9 -26.5Z" stroke="#ff0000" fill="none" stroke-width="2"></path></g><g transform="translate(732 97)"><path d="M0 -46L39.8 -23L39.8 23L0 46L-39.8 23L-39.8 -23Z" stroke="#ff0000" fill="none" stroke-width="2"></path></g><g transform="translate(74 571)"><path d="M0 -33L28.6 -16.5L28.6 16.5L0 33L-28.6 16.5L-28.6 -16.5Z" stroke="#ff0000" fill="none" stroke-width="2"></path></g><g transform="translate(869 364)"><path d="M0 -44L38.1 -22L38.1 22L0 44L-38.1 22L-38.1 -22Z" stroke="#ff0000" fill="none" stroke-width="2"></path></g><g transform="translate(473 594)"><path d="M0 -34L29.4 -17L29.4 17L0 34L-29.4 17L-29.4 -17Z" stroke="#ff0000" fill="none" stroke-width="2"></path></g><g transform="translate(52 40)"><path d="M0 -47L40.7 -23.5L40.7 23.5L0 47L-40.7 23.5L-40.7 -23.5Z" stroke="#ff0000" fill="none" stroke-width="2"></path></g><g transform="translate(273 127)"><path d="M0 -44L38.1 -22L38.1 22L0 44L-38.1 22L-38.1 -22Z" stroke="#ff0000" fill="none" stroke-width="2"></path></g><g transform="translate(699 572)"><path d="M0 -37L32 -18.5L32 18.5L0 37L-32 18.5L-32 -18.5Z" stroke="#ff0000" fill="none" stroke-width="2"></path></g><g transform="translate(581 525)"><path d="M0 -35L30.3 -17.5L30.3 17.5L0 35L-30.3 17.5L-30.3 -17.5Z" stroke="#ff0000" fill="none" stroke-width="2"></path></g><g transform="translate(538 164)"><path d="M0 -41L35.5 -20.5L35.5 20.5L0 41L-35.5 20.5L-35.5 -20.5Z" stroke="#ff0000" fill="none" stroke-width="2"></path></g><g transform="translate(797 7)"><path d="M0 -42L36.4 -21L36.4 21L0 42L-36.4 21L-36.4 -21Z" stroke="#ff0000" fill="none" stroke-width="2"></path></g><g transform="translate(251 360)"><path d="M0 -41L35.5 -20.5L35.5 20.5L0 41L-35.5 20.5L-35.5 -20.5Z" stroke="#ff0000" fill="none" stroke-width="2"></path></g><g transform="translate(342 544)"><path d="M0 -34L29.4 -17L29.4 17L0 34L-29.4 17L-29.4 -17Z" stroke="#ff0000" fill="none" stroke-width="2"></path></g><g transform="translate(854 119)"><path d="M0 -49L42.4 -24.5L42.4 24.5L0 49L-42.4 24.5L-42.4 -24.5Z" stroke="#ff0000" fill="none" stroke-width="2"></path></g><g transform="translate(268 14)"><path d="M0 -35L30.3 -17.5L30.3 17.5L0 35L-30.3 17.5L-30.3 -17.5Z" stroke="#ff0000" fill="none" stroke-width="2"></path></g><g transform="translate(29 162)"><path d="M0 -48L41.6 -24L41.6 24L0 48L-41.6 24L-41.6 -24Z" stroke="#ff0000" fill="none" stroke-width="2"></path></g><g transform="translate(588 402)"><path d="M0 -45L39 -22.5L39 22.5L0 45L-39 22.5L-39 -22.5Z" stroke="#ff0000" fill="none" stroke-width="2"></path></g><g transform="translate(390 4)"><path d="M0 -46L39.8 -23L39.8 23L0 46L-39.8 23L-39.8 -23Z" stroke="#ff0000" fill="none" stroke-width="2"></path></g><g transform="translate(23 394)"><path d="M0 -53L45.9 -26.5L45.9 26.5L0 53L-45.9 26.5L-45.9 -26.5Z" stroke="#ff0000" fill="none" stroke-width="2"></path></g><g transform="translate(708 225)"><path d="M0 -36L31.2 -18L31.2 18L0 36L-31.2 18L-31.2 -18Z" stroke="#ff0000" fill="none" stroke-width="2"></path></g></g></svg>