<svg id="visual" viewBox="0 0 900 600" width="900" height="600" xmlns="http://www.w3.org/2000/svg" xmlns:xlink="http://www.w3.org/1999/xlink" version="1.1"><rect x="0" y="0" width="900" height="600" fill="#002233"></rect><path d="M0 498L21.5 493.3C43 488.7 86 479.3 128.8 482.2C171.7 485 214.3 500 257.2 496.8C300 493.7 343 472.3 385.8 451.7C428.7 431 471.3 411 514.2 417.8C557 424.7 600 458.3 642.8 478.8C685.7 499.3 728.3 506.7 771.2 505.5C814 504.3 857 494.7 878.5 489.8L900 485L900 601L878.5 601C857 601 814 601 771.2 601C728.3 601 685.7 601 642.8 601C600 601 557 601 514.2 601C471.3 601 428.7 601 385.8 601C343 601 300 601 257.2 601C214.3 601 171.7 601 128.8 601C86 601 43 601 21.5 601L0 601Z" fill="#0066FF" stroke-linecap="round" stroke-linejoin="miter"></path></svg>